<svg version="1.2" xmlns="http://www.w3.org/2000/svg" xmlns:xlink="http://www.w3.org/1999/xlink" overflow="visible" preserveAspectRatio="none" viewBox="0 0 24 24" width="13" height="13"><g><path xmlns:default="http://www.w3.org/2000/svg" id="angle-up" d="M17.2,14.17c0-0.09-0.04-0.18-0.1-0.24l-4.86-4.86c-0.13-0.13-0.33-0.14-0.47-0.01c0,0-0.01,0.01-0.01,0.01  l-4.85,4.86c-0.13,0.13-0.14,0.33-0.01,0.47c0,0,0.01,0.01,0.01,0.01l0.52,0.52c0.13,0.13,0.33,0.14,0.47,0.01  c0,0,0.01-0.01,0.01-0.01l4.09-4.1l4.09,4.09c0.13,0.13,0.33,0.14,0.47,0.01c0,0,0.01-0.01,0.01-0.01l0.52-0.52  c0.06-0.06,0.1-0.15,0.1-0.24l0,0L17.2,14.17z" style="fill: rgb(18, 18, 18);" vector-effect="non-scaling-stroke"/></g></svg>