<svg version="1.2" xmlns="http://www.w3.org/2000/svg" xmlns:xlink="http://www.w3.org/1999/xlink" overflow="visible" preserveAspectRatio="none" viewBox="0 0 24 24" width="30" height="30"><g><path xmlns:default="http://www.w3.org/2000/svg" id="cart-plus" d="M15.76,9.8c-0.12,0.13-0.29,0.2-0.47,0.2h-1.33v1.33c-0.05,0.37-0.38,0.63-0.75,0.58  c-0.31-0.04-0.55-0.28-0.58-0.58V10h-1.34c-0.37-0.05-0.63-0.38-0.58-0.75c0.04-0.31,0.28-0.55,0.58-0.58h1.33V7.34  c0.05-0.37,0.38-0.63,0.75-0.58c0.31,0.04,0.55,0.28,0.58,0.58v1.33h1.33c0.36-0.01,0.67,0.28,0.68,0.64  C15.96,9.5,15.89,9.68,15.76,9.8z M9.57,17.05c-0.52-0.52-1.36-0.52-1.88,0c-0.52,0.52-0.52,1.36,0,1.88s1.36,0.52,1.88,0  c0.25-0.25,0.39-0.58,0.39-0.93C9.97,17.65,9.82,17.3,9.57,17.05z M18.9,17.05c-0.52-0.52-1.36-0.52-1.88,0  c-0.52,0.52-0.52,1.36,0,1.88c0.52,0.52,1.36,0.52,1.88,0c0.25-0.25,0.39-0.59,0.39-0.94C19.29,17.64,19.15,17.3,18.9,17.05z   M20.62,6.67c-0.01-0.36-0.3-0.66-0.66-0.67H7.45V5.73l-0.1-0.3C7.33,5.34,7.3,5.25,7.27,5.15C7.24,5.06,7.19,4.98,7.13,4.9  c-0.05-0.06-0.1-0.12-0.17-0.16c-0.09-0.05-0.2-0.07-0.3-0.07h-2.7C3.59,4.72,3.33,5.05,3.37,5.42C3.41,5.73,3.65,5.97,3.96,6h2.13  l1.87,8.57L7.72,15c-0.13,0.23-0.23,0.44-0.31,0.62c-0.06,0.13-0.1,0.27-0.11,0.41C7.3,16.4,7.6,16.7,7.97,16.7h10.65  c0.37-0.05,0.63-0.38,0.58-0.75c-0.04-0.31-0.28-0.55-0.58-0.58H9.04c0.12-0.21,0.21-0.43,0.25-0.67c0.01-0.08,0.01-0.15,0-0.23  l-0.06-0.28c0-0.1,0-0.17,0-0.22L20.1,12.7c0.17-0.02,0.32-0.09,0.43-0.22c0.09-0.14,0.12-0.31,0.09-0.48V6.67L20.62,6.67z" style="fill: rgb(18, 18, 18);" vector-effect="non-scaling-stroke"/></g></svg>