<svg version="1.2" xmlns="http://www.w3.org/2000/svg" xmlns:xlink="http://www.w3.org/1999/xlink" overflow="visible" preserveAspectRatio="none" viewBox="0 0 102 102" xml:space="preserve" height="24" width="24" y="0px" x="0px" id="Layer_1_11016632100000001_2sascq_13013819999999995_jl7kg6_18074464_ntyx99_18839963400000002_mar1lw"><g transform="translate(1, 1)"><g>
	<path d="M80.161,60.441l-15.66-7.47l-6.622-3.159c2.892-1.822,5.241-4.634,6.778-8.022c1.22-2.69,1.946-5.734,1.946-8.99   c0-1.827-0.29-3.562-0.694-5.236C63.94,19.453,57.605,13.477,50,13.477c-7.461,0-13.701,5.763-15.792,13.645   c-0.482,1.808-0.815,3.688-0.815,5.68c0,3.459,0.808,6.684,2.181,9.489c1.587,3.254,3.94,5.937,6.804,7.662l-6.342,2.953   l-16.168,7.53c-1.404,0.658-2.327,2.242-2.327,4.011v15.062v2.703c0,2.381,1.659,4.312,3.708,4.312h57.505   c2.048,0,3.708-1.93,3.708-4.312v-2.703V64.446C82.46,62.683,81.552,61.114,80.161,60.441z" vector-effect="non-scaling-stroke" style="fill: rgb(0, 0, 0);"/>
</g></g></svg>